<?xml version="1.0" standalone="no"?><!DOCTYPE svg PUBLIC "-//W3C//DTD SVG 1.1//EN" "http://www.w3.org/Graphics/SVG/1.1/DTD/svg11.dtd"><svg t="1605824588780" class="icon" viewBox="0 0 1024 1024" version="1.1" xmlns="http://www.w3.org/2000/svg" p-id="2824" xmlns:xlink="http://www.w3.org/1999/xlink" width="200" height="200"><defs><style type="text/css"></style></defs><path d="M986.496 37.504a128 128 0 0 0-180.992 0L633.408 209.6 512.064 88.256 376.32 224l106.432 106.432L10.624 802.56a35.84 35.84 0 0 0-10.304 29.44H0.064v160a32 32 0 0 0 32 32h164.032a35.904 35.904 0 0 0 25.472-10.56l472.128-472.128 106.432 106.432L935.872 512l-121.344-121.344 172.096-172.096a128 128 0 0 0 0-180.992zM173.12 960H64v-109.12l469.568-469.568 109.056 109.056-469.568 469.568z" p-id="2825"></path></svg>